# xmcd CD database file
#
# Track frame offsets:
#	150
#	9478
#	25787
#	42765
#	60184
#	74894
#	92655
#	107356
#	120941
#	132928
#	143802
#	156958
#	169563
#	183190
#	196981
#	210887
#
# Disc length: 3054 seconds
#
# Revision: 0
# Processed by: cddbd v1.5PL3 Copyright (c) Steve Scherf et al.
# Submitted via: CDex 1.51
#
DISCID=c50bec10
DTITLE=Milionário and José Rico - Seleção de Ouro
DYEAR=1900
DGENRE=Country
TTITLE0=Estrada da Vida
TTITLE1=Sonho de um Caminhoneiro
TTITLE2=Herói da Velocidade
TTITLE3=Tribunal do Amor
TTITLE4=Jogo do Amor
TTITLE5=Vontade Dividida
TTITLE6=Amor Dividido
TTITLE7=De Longe Também Se Ama
TTITLE8=Águas da Saudade
TTITLE9=Meu Desespero
TTITLE10=Ilusão Perdida
TTITLE11=Do Mundo Nada Se Leva
TTITLE12=Vá Pro Inferno Com Seu Amor
TTITLE13=O Nosso Filho
TTITLE14=Pombinha Branca
TTITLE15=Amada Amante
EXTD=
EXTT0=
EXTT1=
EXTT2=
EXTT3=
EXTT4=
EXTT5=
EXTT6=
EXTT7=
EXTT8=
EXTT9=
EXTT10=
EXTT11=
EXTT12=
EXTT13=
EXTT14=
EXTT15=
PLAYORDER=
